<?xml version="1.0" standalone="no"?>
<!DOCTYPE svg PUBLIC "-//W3C//DTD SVG 20010904//EN"
 "http://www.w3.org/TR/2001/REC-SVG-20010904/DTD/svg10.dtd">
<svg version="1.0" xmlns="http://www.w3.org/2000/svg"
 width="192.000000pt" height="192.000000pt" viewBox="0 0 192.000000 192.000000"
 preserveAspectRatio="xMidYMid meet">
<metadata>
Created by potrace 1.14, written by Peter Selinger 2001-2017
</metadata>
<g transform="translate(0.000000,192.000000) scale(0.100000,-0.100000)"
fill="#000000" stroke="none">
<path d="M815 1803 c-136 -19 -279 -87 -380 -183 -75 -71 -153 -195 -183 -295
-21 -68 -26 -104 -26 -190 0 -180 56 -328 173 -461 52 -59 170 -148 241 -182
112 -53 172 -67 300 -68 134 -1 207 15 315 70 72 36 192 126 236 176 224 258
224 632 0 890 -42 48 -168 142 -236 176 -108 54 -173 70 -300 72 -55 0 -118
-2 -140 -5z m231 -428 c51 -25 75 -71 69 -134 -6 -69 -44 -111 -110 -122 -95
-15 -175 51 -175 146 0 106 123 169 216 110z m-186 -355 c39 -20 61 -44 79
-85 l13 -30 128 -5 129 -5 -36 -24 c-66 -44 -132 -62 -219 -59 -101 3 -168 33
-236 107 -44 47 -79 101 -71 109 8 9 84 11 97 3 8 -4 60 -9 117 -11 l104 -3
-29 -27 c-16 -15 -32 -32 -35 -38 -3 -5 -19 -8 -35 -5 -17 3 -65 7 -109 10
l-79 6 20 -22 c60 -66 149 -81 225 -36 l37 22 0 -150 0 -150 -30 13 c-51 21
-60 19 -60 -10 0 -26 -3 -26 -47 -20 -27 3 -54 7 -61 8 -7 1 -11 5 -9 9 2 3
7 42 11 86 8 108 -27 171 -94 171 -23 0 -40 -5 -43 -12 -2 -8 -13 -8 -38 -1
-44 12 -43 9 -43 134 1 172 -4 164 109 115z"/>
</g>
</svg> 